# xmcd
#
# Track frame offsets:
#	182
#	13545
#	28505
#	40365
#	55410
#	72445
#	86077
#	100247
#	116977
#	134190
#	154232
#	167492
#	181340
#	197017
#	214087
#	228987
#	245102
#	257942
#
# Disc length: 3655 seconds
#
# Revision: 2
# Processed by: cddbd v1.5.1PL0 Copyright (c) Steve Scherf et al.
# Submitted via: audiograbber 1.83.01
#
DISCID=0d0e4512
DTITLE=Sawyer Brown - The Hits Live
DYEAR=2000
DGENRE=Country
TTITLE0=Six Days On The Road
TTITLE1=Hard To Say
TTITLE2=This Time
TTITLE3=Cafe On The Corner
TTITLE4=The Walk
TTITLE5=Step That Step
TTITLE6=The Dirt Road
TTITLE7=This Night Won't Last Forever
TTITLE8=All These Years
TTITLE9=The Boys And Me
TTITLE10=Thank God For You
TTITLE11=The Race Is On
TTITLE12=Drive Me WIld
TTITLE13=Some Girls Do
TTITLE14=Perfect World
TTITLE15=Garage Band
TTITLE16=800 Pound Jesus
TTITLE17=Lookin' For Love
EXTD=\nYEAR: 2000  ID3G:   2
EXTT0=
EXTT1=
EXTT2=
EXTT3=
EXTT4=
EXTT5=
EXTT6=
EXTT7=
EXTT8=
EXTT9=
EXTT10=
EXTT11=
EXTT12=
EXTT13=
EXTT14=
EXTT15=
EXTT16=
EXTT17=
PLAYORDER=
